<svg width="60" height="24" viewBox="0 0 60 24" fill="none" xmlns="http://www.w3.org/2000/svg">
<rect x="23.5" y="23.5" width="23" height="23" rx="11.5" transform="rotate(-180 23.5 23.5)" stroke="white"/>
<path d="M9.64645 11.6464C9.45118 11.8417 9.45118 12.1583 9.64645 12.3535L12.8284 15.5355C13.0237 15.7308 13.3403 15.7308 13.5355 15.5355C13.7308 15.3403 13.7308 15.0237 13.5355 14.8284L10.7071 12L13.5355 9.17156C13.7308 8.9763 13.7308 8.65972 13.5355 8.46446C13.3403 8.26919 13.0237 8.26919 12.8284 8.46445L9.64645 11.6464ZM60 11.5L10 11.5L10 12.5L60 12.5L60 11.5Z" fill="white"/>
</svg>
