<svg xmlns="http://www.w3.org/2000/svg" viewBox="0 0 205 40.3"><defs><style>.cls-1{fill:#de042f;}</style></defs><g id="Слой_2" data-name="Слой 2"><g id="Слой_1-2" data-name="Слой 1"><path class="cls-1" d="M201.6,23.26V11.42h3.31V23.26H201.6m-.09-13.14v-3H205v3ZM187.86,23.26V7.14h3.32V13.1a4.23,4.23,0,0,1,3.42-1.9,3.72,3.72,0,0,1,2.92,1.17,4.64,4.64,0,0,1,1,3.22v7.67h-3.32V16.65a2.66,2.66,0,0,0-.52-1.78,1.81,1.81,0,0,0-1.48-.62,1.92,1.92,0,0,0-1.52.62,2.56,2.56,0,0,0-.55,1.78v6.61Zm-6.93.27a5.83,5.83,0,0,1-4.35-1.79,6.08,6.08,0,0,1-1.73-4.38A6,6,0,0,1,176.59,13,5.85,5.85,0,0,1,181,11.2a5.93,5.93,0,0,1,4.65,2.07l-1.94,2A3.88,3.88,0,0,0,181,14.09a2.57,2.57,0,0,0-2,.95,3.52,3.52,0,0,0-.8,2.32,3.38,3.38,0,0,0,.82,2.33,2.69,2.69,0,0,0,2.14.94,3.87,3.87,0,0,0,2.68-1.26l1.94,2a6.86,6.86,0,0,1-2,1.61A6,6,0,0,1,180.93,23.53Zm-14.22-2.9a2.8,2.8,0,0,0,2.21-.94,3.39,3.39,0,0,0,.83-2.33,3.32,3.32,0,0,0-.87-2.31,2.83,2.83,0,0,0-2.21-1,2.78,2.78,0,0,0-2.2.94,3.41,3.41,0,0,0-.83,2.33,3.36,3.36,0,0,0,.86,2.31A2.84,2.84,0,0,0,166.71,20.63Zm4.47,1.11a6.58,6.58,0,0,1-9,0,5.94,5.94,0,0,1-1.8-4.39A5.9,5.9,0,0,1,162.19,13a6.6,6.6,0,0,1,9,0,5.9,5.9,0,0,1,1.8,4.38A5.87,5.87,0,0,1,171.18,21.74Zm-18.42,1.74A9.28,9.28,0,0,1,146.29,21l2-2.41a7.12,7.12,0,0,0,4.56,1.88,2.8,2.8,0,0,0,1.61-.4A1.27,1.27,0,0,0,155,19a1.25,1.25,0,0,0-.61-1.08A9.38,9.38,0,0,0,152,17a18,18,0,0,1-2.12-.65,7.5,7.5,0,0,1-1.54-.85,3.14,3.14,0,0,1-1.06-1.34,4.9,4.9,0,0,1-.34-1.93,4.21,4.21,0,0,1,1.49-3.38,5.69,5.69,0,0,1,3.85-1.29,8.75,8.75,0,0,1,5.67,2l-1.75,2.56a7.09,7.09,0,0,0-4-1.52,2.39,2.39,0,0,0-1.46.39,1.19,1.19,0,0,0-.51,1,1.22,1.22,0,0,0,.64,1.13,12.05,12.05,0,0,0,2.65.9,9.31,9.31,0,0,1,3.67,1.7,3.81,3.81,0,0,1,1.18,3,4.34,4.34,0,0,1-1.54,3.52A6.18,6.18,0,0,1,152.76,23.48Zm-23.41-3.75a2.63,2.63,0,0,0,2,.9,2.59,2.59,0,0,0,2-.91,3.46,3.46,0,0,0,.82-2.4,3.41,3.41,0,0,0-.82-2.36,2.7,2.7,0,0,0-4,0,3.44,3.44,0,0,0-.83,2.4A3.39,3.39,0,0,0,129.35,19.73Zm1.17,3.75a5,5,0,0,1-3.75-1.65,6.33,6.33,0,0,1-1.57-4.51,6.25,6.25,0,0,1,1.56-4.48,5,5,0,0,1,3.76-1.64A4.52,4.52,0,0,1,134.16,13V8.08a13.8,13.8,0,0,0,3.32-1V23.26h-3.32v-1.7A4.3,4.3,0,0,1,130.52,23.48Zm-18.38-.22V11.42h3.32V13.1a4.23,4.23,0,0,1,3.42-1.9,3.7,3.7,0,0,1,2.92,1.17,4.64,4.64,0,0,1,1,3.22v7.67h-3.31V16.65a2.66,2.66,0,0,0-.53-1.78,1.81,1.81,0,0,0-1.48-.62,1.93,1.93,0,0,0-1.52.62,2.56,2.56,0,0,0-.55,1.78v6.61Zm-8.69-2.63a2.78,2.78,0,0,0,2.2-.94,3.39,3.39,0,0,0,.83-2.33,3.32,3.32,0,0,0-.87-2.31,2.83,2.83,0,0,0-2.21-1,2.78,2.78,0,0,0-2.2.94,3.41,3.41,0,0,0-.83,2.33,3.36,3.36,0,0,0,.86,2.31A2.85,2.85,0,0,0,103.45,20.63Zm4.46,1.11a6.58,6.58,0,0,1-9,0,5.94,5.94,0,0,1-1.8-4.39A5.9,5.9,0,0,1,98.92,13a6.6,6.6,0,0,1,9,0,5.9,5.9,0,0,1,1.8,4.38A5.87,5.87,0,0,1,107.91,21.74ZM85.83,15.31h3.4a2.78,2.78,0,0,0,1.9-.61,2.08,2.08,0,0,0,.67-1.62,2,2,0,0,0-.69-1.65,3,3,0,0,0-1.94-.56H85.83Zm-3.36,8V7.8h7A6,6,0,0,1,93.9,9.36a4.89,4.89,0,0,1,1.3,3.58,4.71,4.71,0,0,1-3.27,4.8l3.73,5.52H91.74l-3.32-5H85.83v5ZM64.9,16.41h5a3.25,3.25,0,0,0-.79-1.83,2.19,2.19,0,0,0-1.67-.69,2.25,2.25,0,0,0-1.67.68A3.34,3.34,0,0,0,64.9,16.41Zm2.86,7.12a5.89,5.89,0,0,1-6.11-6.17A6.24,6.24,0,0,1,63.29,13a5.34,5.34,0,0,1,4.14-1.79,5.09,5.09,0,0,1,4.23,1.85,7.22,7.22,0,0,1,1.46,4.58c0,.17,0,.47-.05.88H64.94a2.72,2.72,0,0,0,2.86,2.32,4,4,0,0,0,2.83-1.21l1.9,1.7A5.8,5.8,0,0,1,67.76,23.53Zm-18.47-.27V7.84h3.36V20.17h7.61v3.09Z"/><path class="cls-1" d="M134.07,35.38V30.23h.57v4.61h2.86v.54Zm-5.46,0V30.23h3.68v.53h-3.1v1.75H132V33h-2.77v1.81h3.14v.53Zm-4,0V30.76H123v-.53h4v.53h-1.71v4.62Zm-6.82-1.07a1.91,1.91,0,0,0,1.44.62,1.86,1.86,0,0,0,1.43-.62,2.3,2.3,0,0,0,0-3,1.88,1.88,0,0,0-1.43-.62,1.85,1.85,0,0,0-1.43.62,2.13,2.13,0,0,0-.56,1.51A2.17,2.17,0,0,0,117.84,34.31Zm3.29.38a2.45,2.45,0,0,1-1.86.78,2.42,2.42,0,0,1-1.86-.78,2.78,2.78,0,0,1,0-3.77,2.61,2.61,0,0,1,3.72,0,2.78,2.78,0,0,1,0,3.77Zm-10.33.69V30.23h.57v2.28h2.94V30.23h.57v5.15h-.57V33.06h-2.94v2.32Zm-6.94-1.89h2.32L105,30.87Zm-1.41,1.89,2.31-5.19h.54l2.32,5.19H107L106.4,34h-2.76L103,35.38ZM98.52,33h1.26a1.52,1.52,0,0,0,1-.31,1.13,1.13,0,0,0,0-1.67,1.61,1.61,0,0,0-1-.29H98.52ZM98,35.38V30.23h1.9a2,2,0,0,1,1.39.44,1.5,1.5,0,0,1,.52,1.2,1.52,1.52,0,0,1-.57,1.25,2.3,2.3,0,0,1-1.43.44H98.52v1.82Zm-3.49.07a3,3,0,0,1-2.08-.82l.35-.43a3.18,3.18,0,0,0,.82.55,2.3,2.3,0,0,0,.93.18,1.25,1.25,0,0,0,.82-.25.77.77,0,0,0,.31-.64.72.72,0,0,0-.28-.6,2.63,2.63,0,0,0-1-.38A3,3,0,0,1,93,32.52a1.19,1.19,0,0,1-.4-1,1.27,1.27,0,0,1,.47-1,1.79,1.79,0,0,1,1.2-.4,2.71,2.71,0,0,1,1.79.64l-.34.44a2.25,2.25,0,0,0-1.46-.56,1.22,1.22,0,0,0-.79.24.78.78,0,0,0-.29.61.7.7,0,0,0,.28.6,3,3,0,0,0,1.1.4,3,3,0,0,1,1.26.54,1.17,1.17,0,0,1,.39.93,1.3,1.3,0,0,1-.49,1.06A1.87,1.87,0,0,1,94.46,35.45ZM86.73,35A1.72,1.72,0,0,0,88,34.29l-1.36-1.42a1.74,1.74,0,0,0-.73.47,1,1,0,0,0-.24.65.91.91,0,0,0,.29.69A1.07,1.07,0,0,0,86.73,35Zm.14-2.64c.65-.22,1-.55,1-1a.66.66,0,0,0-.21-.51.66.66,0,0,0-.51-.2.76.76,0,0,0-.56.21.73.73,0,0,0-.21.54.79.79,0,0,0,.11.43A2.33,2.33,0,0,0,86.87,32.32Zm2.28,3.16-.8-.83a2.24,2.24,0,0,1-1.67.8,1.64,1.64,0,0,1-1.14-.4A1.35,1.35,0,0,1,85.09,34a1.6,1.6,0,0,1,1.22-1.48,2.28,2.28,0,0,1-.38-.58,1.33,1.33,0,0,1-.13-.57,1.17,1.17,0,0,1,.38-.87,1.33,1.33,0,0,1,1-.35,1.2,1.2,0,0,1,.88.34,1.11,1.11,0,0,1,.35.84c0,.6-.4,1-1.19,1.33l1.16,1.2A6.34,6.34,0,0,0,89,32.71l.47.22a7.87,7.87,0,0,1-.73,1.29l.88.92Zm-9.21-.1V30.76H78.23v-.53h4v.53h-1.7v4.62Zm-6.61-2.53h1.56a1.46,1.46,0,0,0,.94-.28,1,1,0,0,0,.37-.79.9.9,0,0,0-.35-.75,1.51,1.51,0,0,0-.95-.27H73.33Zm-.58,2.53V30.23h2.19a1.93,1.93,0,0,1,1.44.51,1.39,1.39,0,0,1,.4,1,1.37,1.37,0,0,1-.38,1,1.83,1.83,0,0,1-1,.5L77,35.38h-.71l-1.47-2H73.33v2Zm-5.82-1.07a1.88,1.88,0,0,0,1.44.62,1.84,1.84,0,0,0,1.42-.62,2.29,2.29,0,0,0,0-3,1.88,1.88,0,0,0-1.44-.62,1.84,1.84,0,0,0-1.42.62,2.29,2.29,0,0,0,0,3Zm3.29.38a2.62,2.62,0,0,1-3.73,0,2.69,2.69,0,0,1-.72-1.89,2.64,2.64,0,0,1,.73-1.88,2.62,2.62,0,0,1,3.73,0,2.81,2.81,0,0,1,0,3.77Zm-7.72.76a3,3,0,0,1-2.08-.82l.36-.43a3,3,0,0,0,.81.55,2.34,2.34,0,0,0,.93.18,1.25,1.25,0,0,0,.82-.25.77.77,0,0,0,.31-.64.74.74,0,0,0-.27-.6,2.76,2.76,0,0,0-1.05-.38A3,3,0,0,1,61,32.52a1.19,1.19,0,0,1-.4-1,1.25,1.25,0,0,1,.48-1,1.75,1.75,0,0,1,1.19-.4,2.71,2.71,0,0,1,1.79.64l-.33.44a2.27,2.27,0,0,0-1.47-.56,1.19,1.19,0,0,0-.78.24.76.76,0,0,0-.3.61.7.7,0,0,0,.28.6,3.07,3.07,0,0,0,1.1.4,3,3,0,0,1,1.26.54,1.17,1.17,0,0,1,.39.93,1.32,1.32,0,0,1-.48,1.06A1.89,1.89,0,0,1,62.5,35.45Zm-7.2-.07V30.23H59v.53H55.87v1.75h2.78V33H55.87v1.81H59v.53ZM50,32.85H51.6a1.48,1.48,0,0,0,.94-.28,1,1,0,0,0,.36-.79.9.9,0,0,0-.34-.75,1.52,1.52,0,0,0-1-.27H50Zm-.57,2.53V30.23h2.19a2,2,0,0,1,1.44.51,1.42,1.42,0,0,1,.39,1,1.36,1.36,0,0,1-.37,1,1.83,1.83,0,0,1-1,.5l1.57,2.11H53l-1.47-2H50v2Z"/><path class="cls-1" d="M28.22,11.7a11.69,11.69,0,0,0-16.68,0,12.07,12.07,0,0,0,0,16.9,11.69,11.69,0,0,0,16.68,0,12.07,12.07,0,0,0,0-16.9M19.88,0A19.72,19.72,0,0,1,33.94,5.9a20.33,20.33,0,0,1,0,28.5,19.7,19.7,0,0,1-28.12,0,20.36,20.36,0,0,1,0-28.5A19.72,19.72,0,0,1,19.88,0Z"/></g></g></svg>