<svg width="122" height="48" viewBox="0 0 122 48" fill="none" xmlns="http://www.w3.org/2000/svg">
<rect x="74.75" y="0.75" width="46.5" height="46.5" rx="23.25" stroke="white" stroke-width="1.5"/>
<path d="M100.53 24.5303C100.823 24.2375 100.823 23.7626 100.53 23.4697L95.7574 18.6967C95.4645 18.4038 94.9896 18.4038 94.6967 18.6967C94.4038 18.9896 94.4038 19.4645 94.6967 19.7574L98.9393 24L94.6967 28.2427C94.4038 28.5355 94.4038 29.0104 94.6967 29.3033C94.9896 29.5962 95.4645 29.5962 95.7574 29.3033L100.53 24.5303ZM-3.82475e-08 24.75L100 24.75L100 23.25L3.82475e-08 23.25L-3.82475e-08 24.75Z" fill="white"/>
</svg>
